<svg width="54" height="54" viewBox="0 0 54 54" fill="none" xmlns="http://www.w3.org/2000/svg">
<g clip-path="url(#clip0_1009_417)">
<path fill-rule="evenodd" clip-rule="evenodd" d="M14.8405 14.5733C14.3526 15.0613 14.3526 15.8523 14.8405 16.3402L38.0103 39.51C38.4982 39.9979 39.2892 39.9979 39.7771 39.51C40.2651 39.0221 40.2651 38.231 39.7771 37.7431L16.6074 14.5733C16.1195 14.0854 15.3284 14.0854 14.8405 14.5733Z" fill="#09CC5C"/>
<path fill-rule="evenodd" clip-rule="evenodd" d="M39.5113 40.3296C40.2011 40.3107 40.7449 39.7363 40.7261 39.0466L40.1666 18.5566C40.1478 17.8668 39.5733 17.3229 38.8836 17.3418C38.1938 17.3606 37.6499 17.935 37.6688 18.6248L38.2283 39.1148C38.2471 39.8045 38.8215 40.3484 39.5113 40.3296Z" fill="#09CC5C"/>
<path fill-rule="evenodd" clip-rule="evenodd" d="M17.6796 38.5456C17.6606 39.2354 18.2043 39.8099 18.894 39.829L39.3782 40.3944C40.0679 40.4134 40.6425 39.8697 40.6615 39.18C40.6806 38.4902 40.1369 37.9156 39.4471 37.8966L18.963 37.3312C18.2732 37.3121 17.6986 37.8559 17.6796 38.5456Z" fill="#09CC5C"/>
</g>
<defs>
<clipPath id="clip0_1009_417">
<rect width="37.2999" height="37.2999" fill="white" transform="matrix(0.707107 0.707107 0.707107 -0.707107 0.8125 27.1875)"/>
</clipPath>
</defs>
</svg>
