<svg width="24" height="25" viewBox="0 0 24 25" fill="none" xmlns="http://www.w3.org/2000/svg">
<path d="M9.857 5.52427H14.1427C14.1427 4.95595 13.917 4.41091 13.5151 4.00905C13.1132 3.60718 12.5682 3.38142 11.9999 3.38142C11.4315 3.38142 10.8865 3.60718 10.4846 4.00905C10.0828 4.41091 9.857 4.95595 9.857 5.52427ZM8.57129 5.52427C8.57129 4.61496 8.93251 3.74289 9.57549 3.09991C10.2185 2.45693 11.0905 2.0957 11.9999 2.0957C12.9092 2.0957 13.7812 2.45693 14.4242 3.09991C15.0672 3.74289 15.4284 4.61496 15.4284 5.52427H20.7856C20.9561 5.52427 21.1196 5.592 21.2401 5.71256C21.3607 5.83312 21.4284 5.99664 21.4284 6.16713C21.4284 6.33763 21.3607 6.50114 21.2401 6.6217C21.1196 6.74226 20.9561 6.80999 20.7856 6.80999H19.6627L18.6196 19.3268C18.5437 20.2374 18.1284 21.0862 17.456 21.7049C16.7836 22.3236 15.9033 22.6671 14.9896 22.6671H9.01015C8.09643 22.6671 7.21609 22.3236 6.54372 21.7049C5.87135 21.0862 5.45604 20.2374 5.38015 19.3268L4.337 6.80999H3.21415C3.04365 6.80999 2.88014 6.74226 2.75958 6.6217C2.63902 6.50114 2.57129 6.33763 2.57129 6.16713C2.57129 5.99664 2.63902 5.83312 2.75958 5.71256C2.88014 5.592 3.04365 5.52427 3.21415 5.52427H8.57129ZM6.66157 19.2197C6.71059 19.8089 6.97925 20.3582 7.41427 20.7586C7.84929 21.159 8.4189 21.3813 9.01015 21.3814H14.9896C15.5808 21.3813 16.1504 21.159 16.5854 20.7586C17.0205 20.3582 17.2891 19.8089 17.3381 19.2197L18.3736 6.80999H5.627L6.66157 19.2197ZM10.0713 9.80999C10.2418 9.80999 10.4053 9.87772 10.5259 9.99828C10.6464 10.1188 10.7141 10.2824 10.7141 10.4528V17.7386C10.7141 17.9091 10.6464 18.0726 10.5259 18.1931C10.4053 18.3137 10.2418 18.3814 10.0713 18.3814C9.90079 18.3814 9.73728 18.3137 9.61672 18.1931C9.49616 18.0726 9.42843 17.9091 9.42843 17.7386V10.4528C9.42843 10.2824 9.49616 10.1188 9.61672 9.99828C9.73728 9.87772 9.90079 9.80999 10.0713 9.80999ZM14.5713 10.4528C14.5713 10.2824 14.5036 10.1188 14.383 9.99828C14.2624 9.87772 14.0989 9.80999 13.9284 9.80999C13.7579 9.80999 13.5944 9.87772 13.4739 9.99828C13.3533 10.1188 13.2856 10.2824 13.2856 10.4528V17.7386C13.2856 17.9091 13.3533 18.0726 13.4739 18.1931C13.5944 18.3137 13.7579 18.3814 13.9284 18.3814C14.0989 18.3814 14.2624 18.3137 14.383 18.1931C14.5036 18.0726 14.5713 17.9091 14.5713 17.7386V10.4528Z" fill="#794135"/>
</svg>
