<svg width="24" height="25" viewBox="0 0 24 25" fill="none" xmlns="http://www.w3.org/2000/svg">
<path fill-rule="evenodd" clip-rule="evenodd" d="M3 12.9196C3 12.5746 3.27969 12.2949 3.6247 12.2949H20.0084C20.3534 12.2949 20.6331 12.5746 20.6331 12.9196C20.6331 13.2646 20.3534 13.5443 20.0084 13.5443H3.6247C3.27969 13.5443 3 13.2646 3 12.9196Z" fill="#354650"/>
<path fill-rule="evenodd" clip-rule="evenodd" d="M20.8291 12.5359C21.0663 12.7864 21.0555 13.1818 20.805 13.419L13.3628 20.4656C13.1123 20.7028 12.7169 20.692 12.4797 20.4415C12.2425 20.191 12.2533 19.7956 12.5038 19.5584L19.946 12.5118C20.1965 12.2746 20.5919 12.2854 20.8291 12.5359Z" fill="#354650"/>
<path fill-rule="evenodd" clip-rule="evenodd" d="M12.4795 5.44781C12.7167 5.19722 13.1121 5.1863 13.3627 5.42344L20.8049 12.4658C21.0555 12.703 21.0664 13.0984 20.8292 13.349C20.5921 13.5996 20.1967 13.6105 19.9461 13.3733L12.5039 6.33093C12.2533 6.0938 12.2424 5.69841 12.4795 5.44781Z" fill="#354650"/>
</svg>
