<svg width="48" height="48" viewBox="0 0 48 48" fill="none" xmlns="http://www.w3.org/2000/svg">
<path d="M24 23V40M24 40L30 34M24 40L18 34M16 14.072C17.4966 14.286 18.883 14.981 19.95 16.052M35 28C38.038 28 40 25.538 40 22.5C39.9999 21.2972 39.6056 20.1277 38.8773 19.1704C38.1491 18.2132 37.1272 17.521 35.968 17.2C35.7897 14.9569 34.86 12.8395 33.3294 11.1902C31.7988 9.54084 29.7566 8.45593 27.533 8.11086C25.3095 7.76578 23.0345 8.18072 21.076 9.28858C19.1175 10.3964 17.5898 12.1325 16.74 14.216C14.9509 13.72 13.038 13.9551 11.4222 14.8696C9.80637 15.784 8.61999 17.3029 8.12403 19.092C7.62808 20.8812 7.86317 22.794 8.7776 24.4099C9.69203 26.0257 11.2109 27.212 13 27.708" stroke="#09CC5C" stroke-width="2" stroke-linecap="round" stroke-linejoin="round"/>
</svg>
