<svg width="48" height="48" viewBox="0 0 48 48" fill="none" xmlns="http://www.w3.org/2000/svg">
<g clip-path="url(#clip0_1205_3545)">
<path d="M33.9469 15.0188C33.9469 9.51137 29.4761 5.03264 23.9608 5.03264C18.4454 5.03264 13.9746 9.50346 13.9746 15.0188C13.9746 20.5341 18.4454 25.005 23.9608 25.005C29.4761 25.005 33.9469 20.455 33.9469 15.0188ZM23.9608 23.003C19.5691 23.003 15.9766 19.4105 15.9766 15.0188C15.9766 10.6271 19.5691 7.03462 23.9608 7.03462C28.3525 7.03462 31.9449 10.6271 31.9449 15.0188C31.9449 19.4105 28.3525 23.003 23.9608 23.003Z" fill="#09CC5C"/>
<path d="M46.9634 45.9268H25.7962C28.9139 40.5776 38.8131 22.9238 38.8922 15.0188C38.9713 6.71019 32.182 0 23.8734 0C15.5648 0 8.94164 6.71019 8.86251 14.9318C8.94164 23.5569 19.0861 40.6489 22.2829 45.9189H1.0366C0.474777 45.9189 0 46.4016 0 46.9555C0 47.5094 0.48269 47.9921 1.0366 47.9921H46.9634C47.5252 47.9921 48 47.5094 48 46.9555C47.9209 46.3937 47.4382 45.9189 46.9634 45.9189V45.9268ZM23.9604 1.99407C31.1454 1.99407 36.9772 7.82592 36.9772 14.9318C36.8981 22.2829 27.0702 39.8497 24.1187 44.9614C21.0801 40.0079 11.0227 22.9951 11.0227 14.9318C11.0227 7.82592 16.8546 1.99407 23.9604 1.99407Z" fill="#09CC5C"/>
<path d="M28.5886 10.2235C28.1059 9.90702 27.552 9.98615 27.1485 10.4609L21.8784 17.4085L19.7182 14.7735C19.4017 14.3778 18.7607 14.2908 18.278 14.6944C17.8824 15.0109 17.7953 15.6518 18.1989 16.1345L21.2375 19.6479C21.6331 20.1306 22.4323 20.1306 22.8359 19.5687L28.826 11.5846C29.0634 11.1019 28.9843 10.548 28.5886 10.2235Z" fill="#09CC5C"/>
</g>
<defs>
<clipPath id="clip0_1205_3545">
<rect width="48" height="48" fill="white"/>
</clipPath>
</defs>
</svg>
