<svg width="48" height="48" viewBox="0 0 48 48" fill="none" xmlns="http://www.w3.org/2000/svg">
<g clip-path="url(#clip0_1455_4344)">
<path d="M33.9466 15.0189C33.9466 9.51145 29.4758 5.03271 23.9605 5.03271C18.4451 5.03271 13.9743 9.50354 13.9743 15.0189C13.9743 20.5342 18.4451 25.005 23.9605 25.005C29.4758 25.005 33.9466 20.4551 33.9466 15.0189ZM23.9605 23.003C19.5688 23.003 15.9763 19.4106 15.9763 15.0189C15.9763 10.6272 19.5688 7.03469 23.9605 7.03469C28.3521 7.03469 31.9446 10.6272 31.9446 15.0189C31.9446 19.4106 28.3521 23.003 23.9605 23.003Z" fill="#357952"/>
<path d="M46.9634 45.9268H25.7962C28.9139 40.5776 38.8131 22.9238 38.8922 15.0188C38.9713 6.71019 32.182 0 23.8734 0C15.5648 0 8.94164 6.71019 8.86251 14.9318C8.94164 23.5569 19.0861 40.6489 22.2829 45.9189H1.0366C0.474777 45.9189 0 46.4016 0 46.9555C0 47.5094 0.48269 47.9921 1.0366 47.9921H46.9634C47.5252 47.9921 48 47.5094 48 46.9555C47.9209 46.3937 47.4382 45.9189 46.9634 45.9189V45.9268ZM23.9604 1.99407C31.1454 1.99407 36.9772 7.82592 36.9772 14.9318C36.8981 22.2829 27.0702 39.8497 24.1187 44.9614C21.0801 40.0079 11.0227 22.9951 11.0227 14.9318C11.0227 7.82592 16.8546 1.99407 23.9604 1.99407Z" fill="#357952"/>
<path d="M28.5895 10.2236C28.1068 9.90708 27.5529 9.98621 27.1494 10.461L21.8793 17.4086L19.7191 14.7736C19.4026 14.3779 18.7616 14.2909 18.2789 14.6944C17.8833 15.0109 17.7963 15.6519 18.1998 16.1346L21.2384 19.6479C21.634 20.1306 22.4332 20.1306 22.8368 19.5688L28.8269 11.5846C29.0643 11.1019 28.9852 10.548 28.5895 10.2236Z" fill="#357952"/>
</g>
<defs>
<clipPath id="clip0_1455_4344">
<rect width="48" height="48" fill="white"/>
</clipPath>
</defs>
</svg>
