<svg width="42" height="38" viewBox="0 0 42 38" fill="none" xmlns="http://www.w3.org/2000/svg">
<g clip-path="url(#clip0_1205_3524)">
<path d="M12.4504 14.81H28.6404C28.9504 14.81 29.1904 14.56 29.1904 14.26C29.1904 13.96 28.9404 13.71 28.6404 13.71H12.4504C12.1404 13.71 11.9004 13.96 11.9004 14.26C11.9004 14.56 12.1504 14.81 12.4504 14.81Z" fill="#09CC5C"/>
<path d="M41.28 14.76L34.44 9.77V8.57C34.44 6.16 32.4 4.2 29.9 4.2H26.82L21.3 0.160001C21.01 -0.0499995 20.61 -0.0499995 20.32 0.160001L14.8 4.19H11.72C9.22 4.19 7.18 6.15 7.18 8.56V9.76L0.34 14.76C0.13 14.92 0 15.16 0 15.43C0 15.48 0 15.52 0.02 15.57C0.02 15.61 0 15.64 0 15.68V36.34C0 36.46 0.03 36.58 0.08 36.68C0 36.87 -0.03 37.08 0.04 37.29C0.15 37.63 0.47 37.85 0.83 37.85H40.79C41.15 37.85 41.46 37.62 41.58 37.29C41.65 37.09 41.63 36.87 41.54 36.69C41.59 36.58 41.62 36.47 41.62 36.35V15.68C41.62 15.68 41.62 15.61 41.6 15.57C41.6 15.52 41.62 15.47 41.62 15.42C41.62 15.16 41.49 14.91 41.28 14.76ZM34.44 11.82L39.4 15.45L34.61 19.13L34.43 19.26V11.82H34.44ZM20.81 1.86L24 4.19H17.61L20.8 1.86H20.81ZM8.84 8.56C8.84 7.07 10.13 5.85 11.72 5.85H29.91C31.5 5.85 32.79 7.06 32.79 8.56V20.46L26.26 25.2C26.15 25.23 26.04 25.27 25.95 25.34L20.87 29.18L15.55 25.33L8.84 20.46V8.56ZM7.18 11.82V19.1L2.23 15.43L7.18 11.82ZM1.66 17.3L13.64 26L1.66 34.71V17.31V17.3ZM3.26 36.18L15.08 27.04L20.39 30.88C20.69 31.09 21.09 31.09 21.38 30.87L26.44 27.04L38.35 36.18H3.26ZM39.96 34.7L27.98 26L39.96 17.3V34.7Z" fill="#09CC5C"/>
</g>
<defs>
<clipPath id="clip0_1205_3524">
<rect width="41.62" height="37.85" fill="white"/>
</clipPath>
</defs>
</svg>
