<svg width="35" height="36" viewBox="0 0 35 36" fill="none" xmlns="http://www.w3.org/2000/svg">
<g clip-path="url(#clip0_1205_3530)">
<path d="M33.2101 18.24C34.0901 18.24 34.8101 17.52 34.8101 16.64C34.8101 7.46 27.3501 0 18.1801 0C17.3001 0 16.5801 0.72 16.5801 1.6C16.5801 2.48 17.3001 3.2 18.1801 3.2C25.5901 3.2 31.6101 9.23 31.6101 16.63C31.6101 17.51 32.3301 18.23 33.2101 18.23V18.24ZM18.1801 2.19C17.8501 2.19 17.5901 1.93 17.5901 1.6C17.5901 1.27 17.8501 1.01 18.1801 1.01C26.7901 1.01 33.8001 8.02 33.8001 16.63C33.8001 16.96 33.5401 17.22 33.2101 17.22C32.8801 17.22 32.6201 16.96 32.6201 16.63C32.6201 8.67 26.1401 2.19 18.1801 2.19Z" fill="#09CC5C"/>
<path d="M18.0004 5.3601C17.1204 5.3601 16.4004 6.0801 16.4004 6.9601C16.4004 7.8401 17.1204 8.5601 18.0004 8.5601C22.5404 8.5601 26.2404 12.2601 26.2404 16.8001C26.2404 17.6801 26.9604 18.4001 27.8404 18.4001C28.7204 18.4001 29.4404 17.6801 29.4404 16.8001C29.4404 10.4901 24.3004 5.3501 17.9904 5.3501L18.0004 5.3601ZM27.8504 17.4001C27.5304 17.4001 27.2604 17.1401 27.2604 16.8101C27.2604 11.7101 23.1104 7.5501 18.0004 7.5501C17.6704 7.5501 17.4104 7.2901 17.4104 6.9601C17.4104 6.6301 17.6704 6.3701 18.0004 6.3701C23.7504 6.3701 28.4304 11.0501 28.4304 16.8001C28.4304 17.1301 28.1704 17.3901 27.8404 17.3901L27.8504 17.4001Z" fill="#09CC5C"/>
<path d="M24.2798 35.09C24.5398 35.11 24.7998 35.13 25.0498 35.13C26.4298 35.13 27.7298 34.79 28.7698 34.15C29.2698 33.86 29.7198 33.5 30.0998 33.08L31.1198 31.95C33.1398 29.72 32.9698 26.25 30.7298 24.23L28.9998 22.67C27.9898 21.76 26.6898 21.26 25.3398 21.26C23.7998 21.26 22.3198 21.92 21.2898 23.06L20.2698 24.19C19.8798 24.62 19.5698 25.1 19.3298 25.63C15.3198 23.93 12.0198 20.91 9.95985 17.06C10.6898 16.75 11.3498 16.28 11.8898 15.69L12.9098 14.56C13.8898 13.48 14.3898 12.08 14.3198 10.62C14.2498 9.16 13.6098 7.82 12.5298 6.84L10.7998 5.28C9.78985 4.37 8.48985 3.87 7.13985 3.87C5.59985 3.87 4.11985 4.53 3.08985 5.67L2.06985 6.8C1.92985 6.96 1.78985 7.13 1.66985 7.3C0.529846 8.31 -0.370154 10.53 0.159846 13.27C2.41985 25.05 12.3498 34.02 24.2898 35.09H24.2798ZM2.70985 8.4C2.70985 8.4 2.75985 8.35 2.77985 8.33L2.82985 8.28C2.82985 8.28 2.86985 8.23 2.88985 8.21C2.98985 8.07 3.08985 7.93 3.20985 7.81L4.22985 6.68C4.97985 5.86 6.03985 5.38 7.15985 5.38C8.13985 5.38 9.07985 5.74 9.79985 6.4L11.5298 7.96C12.3098 8.67 12.7698 9.64 12.8198 10.69C12.8698 11.74 12.5098 12.75 11.8098 13.53L10.7898 14.66C10.3098 15.19 9.68985 15.58 9.00985 15.79L8.69985 15.88C8.47985 15.94 8.30985 16.1 8.21985 16.31C8.12985 16.52 8.13985 16.75 8.23985 16.95L8.37985 17.24C10.6498 21.8 14.5098 25.35 19.2498 27.22L19.5198 27.33C19.7098 27.41 19.9298 27.4 20.1198 27.31C20.3098 27.22 20.4498 27.06 20.5198 26.86L20.6098 26.59C20.7798 26.08 21.0598 25.61 21.4198 25.2L22.4398 24.07C23.1898 23.24 24.2498 22.77 25.3598 22.77C26.3398 22.77 27.2798 23.13 27.9998 23.79L29.7298 25.35C31.3398 26.81 31.4698 29.31 30.0098 30.92L28.9898 32.05C28.7098 32.36 28.3898 32.62 28.0098 32.84C27.0398 33.44 25.7698 33.7 24.4298 33.57C13.1498 32.56 3.77985 24.1 1.64985 12.98C1.19985 10.67 2.03985 8.98 2.70985 8.41V8.4Z" fill="#09CC5C"/>
</g>
<defs>
<clipPath id="clip0_1205_3530">
<rect width="34.81" height="35.12" fill="white"/>
</clipPath>
</defs>
</svg>
